<?xml version="1.0" encoding="utf-8"?>
<!-- Generator: Adobe Illustrator 24.2.1, SVG Export Plug-In . SVG Version: 6.00 Build 0)  -->
<svg version="1.1" xmlns="http://www.w3.org/2000/svg" xmlns:xlink="http://www.w3.org/1999/xlink" x="0px" y="0px" width="400px"
	 height="400px" viewBox="0 0 400 400" style="enable-background:new 0 0 400 400;" xml:space="preserve">
<style type="text/css">
	.st0{display:none;}
	.st1{display:inline;}
	.st2{fill:#119619;}
	.st3{fill:#FFFFFF;}
	.st4{fill:#FF9901;}
	.st5{fill:#DC3A13;}
	.st6{fill:#3467CC;}
	.st7{display:inline;fill:#FF9901;}
	.st8{display:inline;fill:#FFFFFF;}
</style>
<g id="пояснения" class="st0">
	<g class="st1">
		<g>
			<rect x="462.3" y="81.6" class="st2" width="37.4" height="24.6"/>
			<path class="st3" d="M498.8,82.5v22.9h-35.7V82.5H498.8 M500.6,80.7h-39.1v26.4h39.1V80.7L500.6,80.7z"/>
		</g>
		<g>
			<rect x="462.3" y="37.5" class="st4" width="37.4" height="24.6"/>
			<path class="st3" d="M498.8,38.4v22.9h-35.7V38.4H498.8 M500.6,36.7h-39.1V63h39.1V36.7L500.6,36.7z"/>
		</g>
		<g>
			<rect x="462.3" y="0.9" class="st5" width="37.4" height="24.6"/>
			<path class="st3" d="M498.8,1.7v22.9h-35.7V1.7H498.8 M500.6,0h-39.1v26.3h39.1V0L500.6,0z"/>
		</g>
		<g>
			<rect x="464.8" y="-35.8" class="st6" width="37.4" height="24.6"/>
			<path class="st3" d="M501.3-34.9v22.9h-35.7v-22.9H501.3 M503-36.7h-39.1v26.4H503V-36.7L503-36.7z"/>
		</g>
		<text transform="matrix(1 0 0 1 505.4663 99.4226)" style="font-family:'MyriadPro-Regular'; font-size:14.6719px;">Товары других групп</text>
		<text transform="matrix(1 0 0 1 505.4663 55.3563)" style="font-family:'MyriadPro-Regular'; font-size:14.6719px;">Углеводороды</text>
		<text transform="matrix(1 0 0 1 505.4663 18.677)" style="font-family:'MyriadPro-Regular'; font-size:14.6719px;">Нефть</text>
		<text transform="matrix(1 0 0 1 507.9115 -18.0022)" style="font-family:'MyriadPro-Regular'; font-size:14.6719px;">Нефтепродукты</text>
	</g>
</g>
<g id="диаграмма">
	<g class="st0">
		<g class="st1">
			<g>
				<path class="st2" d="M287.9,21c20.1,9.9,36.9,21.8,52.8,37.7l-139,138.9L287.9,21z"/>
				<path class="st3" d="M288.1,21.7c19.7,9.7,36.3,21.5,51.9,37L203.5,195.1L288.1,21.7 M287.7,20.4L200,200.1L341.4,58.7
					C325.2,42.5,308.3,30.4,287.7,20.4L287.7,20.4z"/>
			</g>
		</g>
	</g>
	<g class="st0">
		<path class="st7" d="M179.6,1.7c7.7-0.8,15.2-1.2,22.4-1.2c29.6,0,56.6,6.4,84.9,20.1l-86.7,177.7L179.6,1.7z"/>
		<path class="st8" d="M202.1,1c29.4,0,56.2,6.3,84.2,19.8l-85.7,175.7L180.2,2.1C187.7,1.4,195,1,202.1,1L202.1,1 M202.1,0
			c-7.5,0-15.2,0.4-23,1.2L200,200.1l87.7-179.7C259.4,6.6,232,0,202.1,0L202.1,0z"/>
	</g>
	<g class="st0">
		<g class="st1">
			<g>
				<path class="st5" d="M64.3,53.9C96.5,24,135,6.5,178.6,1.8l20.7,196.8L64.3,53.9z"/>
				<path class="st3" d="M178.2,2.3l20.5,194.9L65,53.9c16-14.7,33.6-26.6,52.3-35.1C136.1,10.2,156.6,4.7,178.2,2.3 M179.1,1.2
					C134.7,5.9,96.2,23.4,63.6,53.9L200,200.1L179.1,1.2L179.1,1.2z"/>
			</g>
		</g>
	</g>
	<g>
		<g>
			<g>
				<path class="st6" d="M200,399.5c-53.3,0-103.4-20.7-141.1-58.4s-58.4-87.7-58.4-141c0-53.3,20.8-103.3,58.4-141L59,59
					c2.3-2.3,2.4-2.4,4.5-4.4L200,200.8L341.4,59.4c37.5,37.6,58.1,87.6,58.1,140.7c0,53.3-20.8,103.3-58.4,141
					S253.3,399.5,200,399.5z"/>
				<path class="st3" d="M63.6,55.3l135.7,145.5l0.7,0.8l0.7-0.7L341.4,60.1c18.7,18.8,33.1,40.7,43,65.1
					c9.7,23.8,14.6,49,14.6,74.9c0,25.8-4.9,51-14.6,74.9c-10,24.7-24.7,46.8-43.7,65.8c-19,19-41.1,33.7-65.8,43.7
					c-23.8,9.7-49,14.6-74.9,14.6c-25.8,0-51-4.9-74.9-14.6c-24.7-10-46.8-24.7-65.8-43.7c-19-19-33.7-41.1-43.7-65.8
					C5.9,251.1,1,225.9,1,200.1c0-25.8,4.9-51,14.6-74.9c10-24.7,24.7-46.8,43.7-65.8l0.1-0.1C61.5,57.2,61.7,57,63.6,55.3
					 M63.6,53.9c-2.6,2.4-2.5,2.3-5,4.8c-78.1,78.1-78.1,204.7,0,282.7c39.1,39,90.2,58.6,141.4,58.6s102.4-19.5,141.4-58.6
					c78.1-78.1,78.1-204.7,0-282.7L200,200.1L63.6,53.9L63.6,53.9z"/>
			</g>
		</g>
	</g>
	<g>
		<g>
		</g>
		<g>
		</g>
		<g>
		</g>
		<g>
		</g>
	</g>
</g>
<g id="Цифры" class="st0">
	<g class="st1">
		<g>
			<path class="st3" d="M167.4,269.4v1.7L152.9,303h-2.7l14.3-31.4h-18.9v6.4h-2.4v-8.6H167.4z"/>
			<path class="st3" d="M193.5,293.3c0,5.6-3.9,9.9-11.8,9.9c-4.9,0-9.5-1.8-11.8-4.5l1.2-1.9c2,2.4,6,4.1,10.5,4.1
				c6.2,0,9.4-3.1,9.4-7.6c0-4.8-2.9-7.7-12-7.7h-6.8l1.8-16.3h17.8v2.2H176l-1.3,11.9h4.8C189.7,283.5,193.5,287.4,193.5,293.3z"/>
			<path class="st3" d="M198.2,301.1c0-1.2,0.9-2,2-2c1.1,0,2,0.9,2,2s-0.9,2.1-2,2.1C199.1,303.2,198.2,302.3,198.2,301.1z"/>
			<path class="st3" d="M233.4,293.8c0,5.9-4.8,9.5-12.8,9.5s-12.7-3.6-12.7-9.5c0-4.2,2.6-7.2,7.2-8.4c-3.8-1.2-6-3.9-6-7.6
				c0-5.4,4.5-8.7,11.5-8.7c7,0,11.6,3.3,11.6,8.7c0,3.7-2.2,6.3-6,7.6C230.8,286.6,233.4,289.6,233.4,293.8z M230.9,293.8
				c0-4.5-3.8-7.3-10.3-7.3s-10.2,2.8-10.2,7.3c0,4.5,3.7,7.3,10.2,7.3S230.9,298.3,230.9,293.8z M220.6,284.5
				c5.7,0,9.1-2.5,9.1-6.5c0-4.1-3.6-6.7-9.1-6.7s-9,2.5-9,6.6C211.6,281.9,214.9,284.5,220.6,284.5z"/>
			<path class="st3" d="M237.5,278.3c0-5.5,3-9.1,7.4-9.1s7.4,3.6,7.4,9.1c0,5.5-3.1,9.1-7.4,9.1S237.5,283.8,237.5,278.3z
				 M250.5,278.3c0-4.7-2.3-7.4-5.6-7.4c-3.3,0-5.6,2.8-5.6,7.4s2.3,7.4,5.6,7.4C248.3,285.7,250.5,282.9,250.5,278.3z M265.4,269.4
				h2.1L244.5,303h-2.1L265.4,269.4z M257.6,294.1c0-5.5,3.1-9.1,7.4-9.1c4.4,0,7.4,3.6,7.4,9.1s-3,9.1-7.4,9.1
				C260.7,303.2,257.6,299.6,257.6,294.1z M270.6,294.1c0-4.6-2.3-7.4-5.6-7.4c-3.4,0-5.6,2.8-5.6,7.4s2.3,7.4,5.6,7.4
				C268.3,301.6,270.6,298.7,270.6,294.1z"/>
		</g>
		<g>
			<path class="st3" d="M106.1,48.2v19.6h-2.8V50.6h-4.4v-2.4H106.1z"/>
			<path class="st3" d="M110.4,58c0-6.4,3.4-10,8-10c4.6,0,8,3.6,8,10s-3.4,10-8,10C113.8,68,110.4,64.3,110.4,58z M123.6,58
				c0-5-2.1-7.5-5.2-7.5c-3.1,0-5.2,2.5-5.2,7.5s2.1,7.5,5.2,7.5C121.4,65.5,123.6,63,123.6,58z"/>
			<path class="st3" d="M128.7,66c0-1.1,0.9-1.9,1.9-1.9c1,0,1.8,0.8,1.8,1.9s-0.8,1.9-1.8,1.9C129.5,67.9,128.7,67.1,128.7,66z"/>
			<path class="st3" d="M140.8,48.2v19.6H138V50.6h-4.4v-2.4H140.8z"/>
			<path class="st3" d="M144.8,53.3c0-3.2,1.8-5.3,4.6-5.3c2.7,0,4.5,2.1,4.5,5.3s-1.8,5.3-4.5,5.3
				C146.6,58.7,144.8,56.5,144.8,53.3z M152.1,53.3c0-2.4-1-3.8-2.7-3.8c-1.7,0-2.7,1.4-2.7,3.8s1.1,3.8,2.7,3.8
				C151,57.1,152.1,55.7,152.1,53.3z M161.1,48.2h2.2l-13.4,19.6h-2.2L161.1,48.2z M157.2,62.6c0-3.2,1.8-5.3,4.5-5.3
				s4.6,2.2,4.6,5.3c0,3.2-1.8,5.3-4.6,5.3S157.2,65.8,157.2,62.6z M164.5,62.6c0-2.3-1.1-3.8-2.7-3.8c-1.7,0-2.7,1.4-2.7,3.8
				c0,2.4,1,3.8,2.7,3.8C163.4,66.3,164.5,64.9,164.5,62.6z"/>
		</g>
		<g>
			<path class="st3" d="M215.8,40.3c0,2.9-2.5,4.7-6.4,4.7c-3.9,0-6.4-1.8-6.4-4.7c0-1.8,1-3.2,2.8-3.9c-1.5-0.7-2.3-1.9-2.3-3.5
				c0-2.7,2.3-4.4,5.8-4.4c3.5,0,5.8,1.7,5.8,4.4c0,1.6-0.8,2.8-2.3,3.5C214.8,37.1,215.8,38.5,215.8,40.3z M213.5,40.2
				c0-1.8-1.6-2.9-4.1-2.9c-2.6,0-4.1,1.1-4.1,2.9c0,1.8,1.5,2.9,4.1,2.9C211.9,43.2,213.5,42,213.5,40.2z M205.9,33
				c0,1.6,1.3,2.6,3.5,2.6c2.2,0,3.6-1,3.6-2.6c0-1.6-1.4-2.6-3.6-2.6C207.2,30.4,205.9,31.4,205.9,33z"/>
			<path class="st3" d="M218.1,43.4c0-0.9,0.7-1.6,1.6-1.6c0.8,0,1.5,0.6,1.5,1.6c0,0.9-0.7,1.6-1.5,1.6
				C218.8,45,218.1,44.3,218.1,43.4z"/>
			<path class="st3" d="M235.3,36.6c0,5.5-3.1,8.4-7.6,8.4c-1.5,0-3-0.3-4-0.9l0.9-1.8c0.9,0.6,1.9,0.8,3.1,0.8c3.3,0,5.3-2,5.3-6.1
				v-0.6c-0.9,1.4-2.6,2.1-4.6,2.1c-3.2,0-5.5-1.9-5.5-4.9c0-3.1,2.5-5.1,5.7-5.1C232.9,28.6,235.3,31.5,235.3,36.6z M232.5,33.5
				c0-1.7-1.3-3.1-3.8-3.1c-2.1,0-3.5,1.2-3.5,3.1c0,1.9,1.4,3.1,3.7,3.1C231,36.7,232.5,35.3,232.5,33.5z"/>
			<path class="st3" d="M237.3,33c0-2.6,1.5-4.4,3.7-4.4s3.7,1.7,3.7,4.4s-1.5,4.4-3.7,4.4S237.3,35.6,237.3,33z M243.3,33
				c0-1.9-0.9-3.1-2.3-3.1c-1.4,0-2.3,1.2-2.3,3.1c0,1.9,0.9,3.1,2.3,3.1C242.5,36.1,243.3,34.9,243.3,33z M250.8,28.8h1.8l-11,16.1
				h-1.8L250.8,28.8z M247.5,40.6c0-2.6,1.5-4.4,3.7-4.4s3.7,1.8,3.7,4.4c0,2.6-1.5,4.4-3.7,4.4S247.5,43.2,247.5,40.6z M253.5,40.6
				c0-1.9-0.9-3.1-2.3-3.1c-1.4,0-2.3,1.1-2.3,3.1s0.9,3.1,2.3,3.1C252.6,43.7,253.5,42.5,253.5,40.6z"/>
		</g>
		<g>
			<path class="st3" d="M290.4,63.1c0,2.2-1.5,3.9-4.8,3.9c-1.8,0-3.5-0.6-4.6-1.5l0.8-1.4c0.8,0.8,2.3,1.4,3.8,1.4
				c1.9,0,3-0.9,3-2.3c0-1.4-0.9-2.3-3.8-2.3h-2.9l0.7-6.6h7.1v1.6h-5.6l-0.3,3.5h1.4C288.9,59.3,290.4,60.8,290.4,63.1z"/>
			<path class="st3" d="M291.9,65.7c0-0.7,0.6-1.2,1.2-1.2c0.6,0,1.2,0.5,1.2,1.2c0,0.7-0.5,1.2-1.2,1.2
				C292.4,67,291.9,66.4,291.9,65.7z"/>
			<path class="st3" d="M305,65.3v1.6H296v-1.2l5.1-5c1.3-1.3,1.6-2.1,1.6-2.9c0-1.3-0.9-2.1-2.7-2.1c-1.4,0-2.4,0.4-3.2,1.4
				l-1.2-1.1c1-1.2,2.6-1.9,4.6-1.9c2.6,0,4.3,1.4,4.3,3.5c0,1.2-0.4,2.3-2.1,4l-3.9,3.7H305z"/>
			<path class="st3" d="M306.5,57.6c0-2.1,1.2-3.4,2.9-3.4c1.7,0,2.9,1.4,2.9,3.4c0,2.1-1.2,3.4-2.9,3.4
				C307.7,61,306.5,59.6,306.5,57.6z M311.2,57.6c0-1.5-0.7-2.4-1.8-2.4c-1.1,0-1.8,0.9-1.8,2.4c0,1.5,0.7,2.4,1.8,2.4
				C310.5,60,311.2,59.1,311.2,57.6z M317,54.3h1.4l-8.6,12.6h-1.4L317,54.3z M314.5,63.5c0-2.1,1.2-3.4,2.9-3.4
				c1.7,0,2.9,1.4,2.9,3.4s-1.2,3.4-2.9,3.4C315.7,67,314.5,65.6,314.5,63.5z M319.2,63.5c0-1.5-0.7-2.4-1.8-2.4
				c-1.1,0-1.8,0.9-1.8,2.4s0.7,2.4,1.8,2.4C318.5,65.9,319.2,65,319.2,63.5z"/>
		</g>
	</g>
	<g class="st1">
		<path class="st3" d="M399,1v398H1V1H399 M400,0H0v400h400V0L400,0z"/>
	</g>
</g>
</svg>
